<?xml version="1.0" encoding="UTF-8" standalone="no"?>
<!DOCTYPE svg PUBLIC "-//W3C//DTD SVG 1.1//EN"
 "http://www.w3.org/Graphics/SVG/1.1/DTD/svg11.dtd">
<!-- Generated by graphviz version 2.40.1 (20161225.0304)
 -->
<!-- Title: dependencies Pages: 1 -->
<svg width="1468pt" height="211pt"
 viewBox="0.00 0.00 1468.00 211.00" xmlns="http://www.w3.org/2000/svg" xmlns:xlink="http://www.w3.org/1999/xlink">
<g id="graph0" class="graph" transform="scale(1 1) rotate(0) translate(4 207)">
<title>dependencies</title>
<polygon fill="#ffffff" stroke="transparent" points="-4,4 -4,-207 1464,-207 1464,4 -4,4"/>
<text text-anchor="start" x="709.0091" y="-42.4" font-family="sans-serif" font-weight="bold" font-size="14.00" fill="#000000">Legend</text>
<polygon fill="#ffffb3" stroke="transparent" points="496,-10 496,-30 516,-30 516,-10 496,-10"/>
<text text-anchor="start" x="519.629" y="-15.4" font-family="sans-serif" font-size="14.00" fill="#000000"> &#160;Declarations</text>
<polygon fill="#8dd3c7" stroke="transparent" points="609,-10 609,-30 629,-30 629,-10 609,-10"/>
<text text-anchor="start" x="632.7251" y="-15.4" font-family="sans-serif" font-size="14.00" fill="#000000"> &#160;Module</text>
<polygon fill="#80b1d3" stroke="transparent" points="695,-10 695,-30 715,-30 715,-10 695,-10"/>
<text text-anchor="start" x="718.7812" y="-15.4" font-family="sans-serif" font-size="14.00" fill="#000000"> &#160;Bootstrap</text>
<polygon fill="#fdb462" stroke="transparent" points="792,-10 792,-30 812,-30 812,-10 792,-10"/>
<text text-anchor="start" x="815.6732" y="-15.4" font-family="sans-serif" font-size="14.00" fill="#000000"> &#160;Providers</text>
<polygon fill="#fb8072" stroke="transparent" points="888,-10 888,-30 908,-30 908,-10 888,-10"/>
<text text-anchor="start" x="911.7258" y="-15.4" font-family="sans-serif" font-size="14.00" fill="#000000"> &#160;Exports</text>
<g id="clust1" class="cluster">
<title>cluster_PrestationsModule</title>
<polygon fill="none" stroke="#000000" stroke-dasharray="1,5" points="8,-70 8,-195 1452,-195 1452,-70 8,-70"/>
</g>
<g id="clust2" class="cluster">
<title>cluster_PrestationsModule_declarations</title>
<polygon fill="none" stroke="#000000" points="322,-78 322,-130 1444,-130 1444,-78 322,-78"/>
</g>
<g id="clust9" class="cluster">
<title>cluster_PrestationsModule_imports</title>
<polygon fill="none" stroke="#000000" points="16,-78 16,-130 314,-130 314,-78 16,-78"/>
</g>
<!-- AddPrestationComponent -->
<g id="node1" class="node">
<title>AddPrestationComponent</title>
<polygon fill="#ffffb3" stroke="#000000" points="1435.9284,-122 1274.0716,-122 1274.0716,-86 1435.9284,-86 1435.9284,-122"/>
<text text-anchor="middle" x="1355" y="-99.8" font-family="Times,serif" font-size="14.00" fill="#000000">AddPrestationComponent</text>
</g>
<!-- PrestationsModule -->
<g id="node7" class="node">
<title>PrestationsModule</title>
<polygon fill="#8dd3c7" stroke="#000000" points="769.4832,-187 766.4832,-191 745.4832,-191 742.4832,-187 648.5168,-187 648.5168,-151 769.4832,-151 769.4832,-187"/>
<text text-anchor="middle" x="709" y="-164.8" font-family="Times,serif" font-size="14.00" fill="#000000">PrestationsModule</text>
</g>
<!-- AddPrestationComponent&#45;&gt;PrestationsModule -->
<g id="edge1" class="edge">
<title>AddPrestationComponent&#45;&gt;PrestationsModule</title>
<path fill="none" stroke="#000000" d="M1355,-122.2921C1355,-144.2057 1355,-178 1355,-178 1355,-178 779.4838,-178 779.4838,-178"/>
<polygon fill="#000000" stroke="#000000" points="779.4838,-174.5001 769.4838,-178 779.4837,-181.5001 779.4838,-174.5001"/>
</g>
<!-- FormPrestationComponent -->
<g id="node2" class="node">
<title>FormPrestationComponent</title>
<polygon fill="#ffffb3" stroke="#000000" points="1255.6554,-122 1088.3446,-122 1088.3446,-86 1255.6554,-86 1255.6554,-122"/>
<text text-anchor="middle" x="1172" y="-99.8" font-family="Times,serif" font-size="14.00" fill="#000000">FormPrestationComponent</text>
</g>
<!-- FormPrestationComponent&#45;&gt;PrestationsModule -->
<g id="edge2" class="edge">
<title>FormPrestationComponent&#45;&gt;PrestationsModule</title>
<path fill="none" stroke="#000000" d="M1172,-122.1061C1172,-141.3391 1172,-169 1172,-169 1172,-169 779.5292,-169 779.5292,-169"/>
<polygon fill="#000000" stroke="#000000" points="779.5292,-165.5001 769.5292,-169 779.5291,-172.5001 779.5292,-165.5001"/>
</g>
<!-- ItemPrestationComponent -->
<g id="node3" class="node">
<title>ItemPrestationComponent</title>
<polygon fill="#ffffb3" stroke="#000000" points="1070.4776,-122 907.5224,-122 907.5224,-86 1070.4776,-86 1070.4776,-122"/>
<text text-anchor="middle" x="989" y="-99.8" font-family="Times,serif" font-size="14.00" fill="#000000">ItemPrestationComponent</text>
</g>
<!-- ItemPrestationComponent&#45;&gt;PrestationsModule -->
<g id="edge3" class="edge">
<title>ItemPrestationComponent&#45;&gt;PrestationsModule</title>
<path fill="none" stroke="#000000" d="M989,-122.027C989,-138.3976 989,-160 989,-160 989,-160 779.7558,-160 779.7558,-160"/>
<polygon fill="#000000" stroke="#000000" points="779.7559,-156.5001 769.7558,-160 779.7558,-163.5001 779.7559,-156.5001"/>
</g>
<!-- ListPrestationsComponent -->
<g id="node4" class="node">
<title>ListPrestationsComponent</title>
<polygon fill="#ffffb3" stroke="#000000" points="889.0448,-122 724.9552,-122 724.9552,-86 889.0448,-86 889.0448,-122"/>
<text text-anchor="middle" x="807" y="-99.8" font-family="Times,serif" font-size="14.00" fill="#000000">ListPrestationsComponent</text>
</g>
<!-- ListPrestationsComponent&#45;&gt;PrestationsModule -->
<g id="edge4" class="edge">
<title>ListPrestationsComponent&#45;&gt;PrestationsModule</title>
<path fill="none" stroke="#000000" d="M747.1098,-122.1061C747.1098,-122.1061 747.1098,-140.991 747.1098,-140.991"/>
<polygon fill="#000000" stroke="#000000" points="743.6098,-140.9909 747.1098,-150.991 750.6098,-140.991 743.6098,-140.9909"/>
</g>
<!-- PageAddPrestationComponent -->
<g id="node5" class="node">
<title>PageAddPrestationComponent</title>
<polygon fill="#ffffb3" stroke="#000000" points="706.1399,-122 517.8601,-122 517.8601,-86 706.1399,-86 706.1399,-122"/>
<text text-anchor="middle" x="612" y="-99.8" font-family="Times,serif" font-size="14.00" fill="#000000">PageAddPrestationComponent</text>
</g>
<!-- PageAddPrestationComponent&#45;&gt;PrestationsModule -->
<g id="edge5" class="edge">
<title>PageAddPrestationComponent&#45;&gt;PrestationsModule</title>
<path fill="none" stroke="#000000" d="M677.4141,-122.1061C677.4141,-122.1061 677.4141,-140.991 677.4141,-140.991"/>
<polygon fill="#000000" stroke="#000000" points="673.9142,-140.9909 677.4141,-150.991 680.9142,-140.991 673.9142,-140.9909"/>
</g>
<!-- PagePrestationsComponent -->
<g id="node6" class="node">
<title>PagePrestationsComponent</title>
<polygon fill="#ffffb3" stroke="#000000" points="499.9776,-122 330.0224,-122 330.0224,-86 499.9776,-86 499.9776,-122"/>
<text text-anchor="middle" x="415" y="-99.8" font-family="Times,serif" font-size="14.00" fill="#000000">PagePrestationsComponent</text>
</g>
<!-- PagePrestationsComponent&#45;&gt;PrestationsModule -->
<g id="edge6" class="edge">
<title>PagePrestationsComponent&#45;&gt;PrestationsModule</title>
<path fill="none" stroke="#000000" d="M415,-122.027C415,-138.3976 415,-160 415,-160 415,-160 638.4395,-160 638.4395,-160"/>
<polygon fill="#000000" stroke="#000000" points="638.4395,-163.5001 648.4395,-160 638.4395,-156.5001 638.4395,-163.5001"/>
</g>
<!-- PrestationsRoutingModule -->
<g id="node8" class="node">
<title>PrestationsRoutingModule</title>
<polygon fill="#8dd3c7" stroke="#000000" points="306.101,-122 303.101,-126 282.101,-126 279.101,-122 139.899,-122 139.899,-86 306.101,-86 306.101,-122"/>
<text text-anchor="middle" x="223" y="-99.8" font-family="Times,serif" font-size="14.00" fill="#000000">PrestationsRoutingModule</text>
</g>
<!-- PrestationsRoutingModule&#45;&gt;PrestationsModule -->
<g id="edge7" class="edge">
<title>PrestationsRoutingModule&#45;&gt;PrestationsModule</title>
<path fill="none" stroke="#000000" d="M223,-122.1061C223,-141.3391 223,-169 223,-169 223,-169 638.4304,-169 638.4304,-169"/>
<polygon fill="#000000" stroke="#000000" points="638.4305,-172.5001 648.4304,-169 638.4304,-165.5001 638.4305,-172.5001"/>
</g>
<!-- SharedModule -->
<g id="node9" class="node">
<title>SharedModule</title>
<polygon fill="#8dd3c7" stroke="#000000" points="122.4231,-122 119.4231,-126 98.4231,-126 95.4231,-122 23.5769,-122 23.5769,-86 122.4231,-86 122.4231,-122"/>
<text text-anchor="middle" x="73" y="-99.8" font-family="Times,serif" font-size="14.00" fill="#000000">SharedModule</text>
</g>
<!-- SharedModule&#45;&gt;PrestationsModule -->
<g id="edge8" class="edge">
<title>SharedModule&#45;&gt;PrestationsModule</title>
<path fill="none" stroke="#000000" d="M73,-122.2921C73,-144.2057 73,-178 73,-178 73,-178 638.3057,-178 638.3057,-178"/>
<polygon fill="#000000" stroke="#000000" points="638.3058,-181.5001 648.3057,-178 638.3057,-174.5001 638.3058,-181.5001"/>
</g>
</g>
</svg>
