<?xml version="1.0" encoding="UTF-8" standalone="no"?>
<!DOCTYPE svg PUBLIC "-//W3C//DTD SVG 1.1//EN"
 "http://www.w3.org/Graphics/SVG/1.1/DTD/svg11.dtd">
<!-- Generated by graphviz version 2.40.1 (20161225.0304)
 -->
<!-- Title: dependencies Pages: 1 -->
<svg width="5180pt" height="374pt"
 viewBox="0.00 0.00 5180.00 374.00" xmlns="http://www.w3.org/2000/svg" xmlns:xlink="http://www.w3.org/1999/xlink">
<g id="graph0" class="graph" transform="scale(1 1) rotate(0) translate(4 370)">
<title>dependencies</title>
<polygon fill="#ffffff" stroke="transparent" points="-4,4 -4,-370 5176,-370 5176,4 -4,4"/>
<text text-anchor="start" x="2565.0091" y="-42.4" font-family="sans-serif" font-weight="bold" font-size="14.00" fill="#000000">Legend</text>
<polygon fill="#ffffb3" stroke="transparent" points="2352,-10 2352,-30 2372,-30 2372,-10 2352,-10"/>
<text text-anchor="start" x="2375.629" y="-15.4" font-family="sans-serif" font-size="14.00" fill="#000000"> &#160;Declarations</text>
<polygon fill="#8dd3c7" stroke="transparent" points="2465,-10 2465,-30 2485,-30 2485,-10 2465,-10"/>
<text text-anchor="start" x="2488.7251" y="-15.4" font-family="sans-serif" font-size="14.00" fill="#000000"> &#160;Module</text>
<polygon fill="#80b1d3" stroke="transparent" points="2551,-10 2551,-30 2571,-30 2571,-10 2551,-10"/>
<text text-anchor="start" x="2574.7812" y="-15.4" font-family="sans-serif" font-size="14.00" fill="#000000"> &#160;Bootstrap</text>
<polygon fill="#fdb462" stroke="transparent" points="2648,-10 2648,-30 2668,-30 2668,-10 2648,-10"/>
<text text-anchor="start" x="2671.6732" y="-15.4" font-family="sans-serif" font-size="14.00" fill="#000000"> &#160;Providers</text>
<polygon fill="#fb8072" stroke="transparent" points="2744,-10 2744,-30 2764,-30 2764,-10 2744,-10"/>
<text text-anchor="start" x="2767.7258" y="-15.4" font-family="sans-serif" font-size="14.00" fill="#000000"> &#160;Exports</text>
<g id="clust1" class="cluster">
<title>cluster_AppModule</title>
<polygon fill="none" stroke="#000000" stroke-dasharray="1,5" points="390,-146 390,-358 883,-358 883,-146 390,-146"/>
</g>
<g id="clust2" class="cluster">
<title>cluster_AppModule_declarations</title>
<polygon fill="none" stroke="#000000" points="753,-154 753,-206 875,-206 875,-154 753,-154"/>
</g>
<g id="clust4" class="cluster">
<title>cluster_AppModule_imports</title>
<polygon fill="none" stroke="#000000" points="398,-154 398,-206 745,-206 745,-154 398,-154"/>
</g>
<g id="clust6" class="cluster">
<title>cluster_AppModule_bootstrap</title>
<polygon fill="none" stroke="#000000" points="546,-298 546,-350 670,-350 670,-298 546,-298"/>
</g>
<g id="clust14" class="cluster">
<title>cluster_ClientsModule</title>
<polygon fill="none" stroke="#000000" stroke-dasharray="1,5" points="1008,-70 1008,-206 1792,-206 1792,-70 1008,-70"/>
</g>
<g id="clust15" class="cluster">
<title>cluster_ClientsModule_declarations</title>
<polygon fill="none" stroke="#000000" points="1016,-78 1016,-130 1500,-130 1500,-78 1016,-78"/>
</g>
<g id="clust19" class="cluster">
<title>cluster_ClientsModule_imports</title>
<polygon fill="none" stroke="#000000" points="1508,-78 1508,-130 1784,-130 1784,-78 1508,-78"/>
</g>
<g id="clust29" class="cluster">
<title>cluster_LoginModule</title>
<polygon fill="none" stroke="#000000" stroke-dasharray="1,5" points="664,-70 664,-138 1000,-138 1000,-70 664,-70"/>
</g>
<g id="clust30" class="cluster">
<title>cluster_LoginModule_declarations</title>
<polygon fill="none" stroke="#000000" points="834,-78 834,-130 992,-130 992,-78 834,-78"/>
</g>
<g id="clust32" class="cluster">
<title>cluster_LoginModule_imports</title>
<polygon fill="none" stroke="#000000" points="672,-78 672,-130 826,-130 826,-78 672,-78"/>
</g>
<g id="clust42" class="cluster">
<title>cluster_PageNotFoundModule</title>
<polygon fill="none" stroke="#000000" stroke-dasharray="1,5" points="4754,-70 4754,-206 5164,-206 5164,-70 4754,-70"/>
</g>
<g id="clust43" class="cluster">
<title>cluster_PageNotFoundModule_declarations</title>
<polygon fill="none" stroke="#000000" points="4974,-78 4974,-130 5156,-130 5156,-78 4974,-78"/>
</g>
<g id="clust45" class="cluster">
<title>cluster_PageNotFoundModule_imports</title>
<polygon fill="none" stroke="#000000" points="4762,-78 4762,-130 4966,-130 4966,-78 4762,-78"/>
</g>
<g id="clust55" class="cluster">
<title>cluster_PrestationsModule</title>
<polygon fill="none" stroke="#000000" stroke-dasharray="1,5" points="3418,-70 3418,-206 4746,-206 4746,-70 3418,-70"/>
</g>
<g id="clust56" class="cluster">
<title>cluster_PrestationsModule_declarations</title>
<polygon fill="none" stroke="#000000" points="3616,-78 3616,-130 4738,-130 4738,-78 3616,-78"/>
</g>
<g id="clust63" class="cluster">
<title>cluster_PrestationsModule_imports</title>
<polygon fill="none" stroke="#000000" points="3426,-78 3426,-130 3608,-130 3608,-78 3426,-78"/>
</g>
<g id="clust73" class="cluster">
<title>cluster_SharedModule</title>
<polygon fill="none" stroke="#000000" stroke-dasharray="1,5" points="1800,-146 1800,-214 3410,-214 3410,-146 1800,-146"/>
</g>
<g id="clust74" class="cluster">
<title>cluster_SharedModule_declarations</title>
<polygon fill="none" stroke="#000000" points="2759,-154 2759,-206 3402,-206 3402,-154 2759,-154"/>
</g>
<g id="clust80" class="cluster">
<title>cluster_SharedModule_imports</title>
<polygon fill="none" stroke="#000000" points="2617,-154 2617,-206 2751,-206 2751,-154 2617,-154"/>
</g>
<g id="clust81" class="cluster">
<title>cluster_SharedModule_exports</title>
<polygon fill="none" stroke="#000000" points="1808,-154 1808,-206 2609,-206 2609,-154 1808,-154"/>
</g>
<g id="clust84" class="cluster">
<title>cluster_TemplatesModule</title>
<polygon fill="none" stroke="#000000" stroke-dasharray="1,5" points="2344,-222 2344,-290 3019,-290 3019,-222 2344,-222"/>
</g>
<g id="clust85" class="cluster">
<title>cluster_TemplatesModule_declarations</title>
<polygon fill="none" stroke="#000000" points="2689,-230 2689,-282 3011,-282 3011,-230 2689,-230"/>
</g>
<g id="clust89" class="cluster">
<title>cluster_TemplatesModule_exports</title>
<polygon fill="none" stroke="#000000" points="2352,-230 2352,-282 2681,-282 2681,-230 2352,-230"/>
</g>
<g id="clust92" class="cluster">
<title>cluster_UiModule</title>
<polygon fill="none" stroke="#000000" stroke-dasharray="1,5" points="8,-70 8,-138 656,-138 656,-70 8,-70"/>
</g>
<g id="clust93" class="cluster">
<title>cluster_UiModule_declarations</title>
<polygon fill="none" stroke="#000000" points="138,-78 138,-130 648,-130 648,-78 138,-78"/>
</g>
<g id="clust99" class="cluster">
<title>cluster_UiModule_exports</title>
<polygon fill="none" stroke="#000000" points="16,-78 16,-130 130,-130 130,-78 16,-78"/>
</g>
<!-- AppComponent -->
<g id="node1" class="node">
<title>AppComponent</title>
<polygon fill="#ffffb3" stroke="#000000" points="866.9399,-198 761.0601,-198 761.0601,-162 866.9399,-162 866.9399,-198"/>
<text text-anchor="middle" x="814" y="-175.8" font-family="Times,serif" font-size="14.00" fill="#000000">AppComponent</text>
</g>
<!-- AppModule -->
<g id="node2" class="node">
<title>AppModule</title>
<polygon fill="#8dd3c7" stroke="#000000" points="649.6571,-274 646.6571,-278 625.6571,-278 622.6571,-274 566.3429,-274 566.3429,-238 649.6571,-238 649.6571,-274"/>
<text text-anchor="middle" x="608" y="-251.8" font-family="Times,serif" font-size="14.00" fill="#000000">AppModule</text>
</g>
<!-- AppComponent&#45;&gt;AppModule -->
<g id="edge1" class="edge">
<title>AppComponent&#45;&gt;AppModule</title>
<path fill="none" stroke="#000000" d="M814,-198.0109C814,-220.4852 814,-256 814,-256 814,-256 659.6872,-256 659.6872,-256"/>
<polygon fill="#000000" stroke="#000000" points="659.6872,-252.5001 649.6872,-256 659.6871,-259.5001 659.6872,-252.5001"/>
</g>
<!-- AppComponent  -->
<g id="node6" class="node">
<title>AppComponent </title>
<polygon fill="#80b1d3" stroke="#000000" points="662.439,-342 553.561,-342 553.561,-306 662.439,-306 662.439,-342"/>
<text text-anchor="middle" x="608" y="-319.8" font-family="Times,serif" font-size="14.00" fill="#000000">AppComponent </text>
</g>
<!-- AppModule&#45;&gt;AppComponent  -->
<g id="edge5" class="edge">
<title>AppModule&#45;&gt;AppComponent </title>
<path fill="none" stroke="#000000" stroke-dasharray="1,5" d="M608,-274.2228C608,-274.2228 608,-295.7269 608,-295.7269"/>
<polygon fill="#000000" stroke="#000000" points="604.5001,-295.7269 608,-305.7269 611.5001,-295.727 604.5001,-295.7269"/>
</g>
<!-- AppRoutingModule -->
<g id="node3" class="node">
<title>AppRoutingModule</title>
<polygon fill="#8dd3c7" stroke="#000000" points="737.2744,-198 734.2744,-202 713.2744,-202 710.2744,-198 608.7256,-198 608.7256,-162 737.2744,-162 737.2744,-198"/>
<text text-anchor="middle" x="673" y="-175.8" font-family="Times,serif" font-size="14.00" fill="#000000">AppRoutingModule</text>
</g>
<!-- AppRoutingModule&#45;&gt;AppModule -->
<g id="edge2" class="edge">
<title>AppRoutingModule&#45;&gt;AppModule</title>
<path fill="none" stroke="#000000" d="M629.2206,-198.0109C629.2206,-198.0109 629.2206,-227.855 629.2206,-227.855"/>
<polygon fill="#000000" stroke="#000000" points="625.7206,-227.8549 629.2206,-237.855 632.7206,-227.855 625.7206,-227.8549"/>
</g>
<!-- LoginModule -->
<g id="node4" class="node">
<title>LoginModule</title>
<polygon fill="#8dd3c7" stroke="#000000" points="590.493,-198 587.493,-202 566.493,-202 563.493,-198 497.507,-198 497.507,-162 590.493,-162 590.493,-198"/>
<text text-anchor="middle" x="544" y="-175.8" font-family="Times,serif" font-size="14.00" fill="#000000">LoginModule</text>
</g>
<!-- LoginModule&#45;&gt;AppModule -->
<g id="edge3" class="edge">
<title>LoginModule&#45;&gt;AppModule</title>
<path fill="none" stroke="#000000" d="M578.3342,-198.0109C578.3342,-198.0109 578.3342,-227.855 578.3342,-227.855"/>
<polygon fill="#000000" stroke="#000000" points="574.8342,-227.8549 578.3342,-237.855 581.8342,-227.855 574.8342,-227.8549"/>
</g>
<!-- UiModule -->
<g id="node5" class="node">
<title>UiModule</title>
<polygon fill="#8dd3c7" stroke="#000000" points="479.5484,-198 476.5484,-202 455.5484,-202 452.5484,-198 406.4516,-198 406.4516,-162 479.5484,-162 479.5484,-198"/>
<text text-anchor="middle" x="443" y="-175.8" font-family="Times,serif" font-size="14.00" fill="#000000">UiModule</text>
</g>
<!-- UiModule&#45;&gt;AppModule -->
<g id="edge4" class="edge">
<title>UiModule&#45;&gt;AppModule</title>
<path fill="none" stroke="#000000" d="M443,-198.0109C443,-220.4852 443,-256 443,-256 443,-256 555.9366,-256 555.9366,-256"/>
<polygon fill="#000000" stroke="#000000" points="555.9366,-259.5001 565.9366,-256 555.9366,-252.5001 555.9366,-259.5001"/>
</g>
<!-- UiComponent  -->
<g id="node46" class="node">
<title>UiComponent </title>
<polygon fill="#fb8072" stroke="#000000" points="122.3297,-122 23.6703,-122 23.6703,-86 122.3297,-86 122.3297,-122"/>
<text text-anchor="middle" x="73" y="-99.8" font-family="Times,serif" font-size="14.00" fill="#000000">UiComponent </text>
</g>
<!-- UiModule&#45;&gt;UiComponent  -->
<g id="edge43" class="edge">
<title>UiModule&#45;&gt;UiComponent </title>
<path fill="none" stroke="#000000" stroke-dasharray="5,2" d="M406.1703,-189C312.5831,-189 73,-189 73,-189 73,-189 73,-132.0263 73,-132.0263"/>
<polygon fill="#000000" stroke="#000000" points="76.5001,-132.0263 73,-122.0263 69.5001,-132.0263 76.5001,-132.0263"/>
</g>
<!-- ItemClientComponent -->
<g id="node7" class="node">
<title>ItemClientComponent</title>
<polygon fill="#ffffb3" stroke="#000000" points="1491.712,-122 1350.288,-122 1350.288,-86 1491.712,-86 1491.712,-122"/>
<text text-anchor="middle" x="1421" y="-99.8" font-family="Times,serif" font-size="14.00" fill="#000000">ItemClientComponent</text>
</g>
<!-- ClientsModule -->
<g id="node10" class="node">
<title>ClientsModule</title>
<polygon fill="#8dd3c7" stroke="#000000" points="1470.7176,-198 1467.7176,-202 1446.7176,-202 1443.7176,-198 1371.2824,-198 1371.2824,-162 1470.7176,-162 1470.7176,-198"/>
<text text-anchor="middle" x="1421" y="-175.8" font-family="Times,serif" font-size="14.00" fill="#000000">ClientsModule</text>
</g>
<!-- ItemClientComponent&#45;&gt;ClientsModule -->
<g id="edge6" class="edge">
<title>ItemClientComponent&#45;&gt;ClientsModule</title>
<path fill="none" stroke="#000000" d="M1421,-122.0109C1421,-122.0109 1421,-151.855 1421,-151.855"/>
<polygon fill="#000000" stroke="#000000" points="1417.5001,-151.8549 1421,-161.855 1424.5001,-151.855 1417.5001,-151.8549"/>
</g>
<!-- ListClientsComponent -->
<g id="node8" class="node">
<title>ListClientsComponent</title>
<polygon fill="#ffffb3" stroke="#000000" points="1332.2786,-122 1189.7214,-122 1189.7214,-86 1332.2786,-86 1332.2786,-122"/>
<text text-anchor="middle" x="1261" y="-99.8" font-family="Times,serif" font-size="14.00" fill="#000000">ListClientsComponent</text>
</g>
<!-- ListClientsComponent&#45;&gt;ClientsModule -->
<g id="edge7" class="edge">
<title>ListClientsComponent&#45;&gt;ClientsModule</title>
<path fill="none" stroke="#000000" d="M1261,-122.0267C1261,-142.7672 1261,-174 1261,-174 1261,-174 1361.2521,-174 1361.2521,-174"/>
<polygon fill="#000000" stroke="#000000" points="1361.2521,-177.5001 1371.2521,-174 1361.252,-170.5001 1361.2521,-177.5001"/>
</g>
<!-- PageClientsComponent -->
<g id="node9" class="node">
<title>PageClientsComponent</title>
<polygon fill="#ffffb3" stroke="#000000" points="1172.212,-122 1023.788,-122 1023.788,-86 1172.212,-86 1172.212,-122"/>
<text text-anchor="middle" x="1098" y="-99.8" font-family="Times,serif" font-size="14.00" fill="#000000">PageClientsComponent</text>
</g>
<!-- PageClientsComponent&#45;&gt;ClientsModule -->
<g id="edge8" class="edge">
<title>PageClientsComponent&#45;&gt;ClientsModule</title>
<path fill="none" stroke="#000000" d="M1098,-122.1985C1098,-146.3563 1098,-186 1098,-186 1098,-186 1361.2391,-186 1361.2391,-186"/>
<polygon fill="#000000" stroke="#000000" points="1361.2391,-189.5001 1371.2391,-186 1361.2391,-182.5001 1361.2391,-189.5001"/>
</g>
<!-- ClientsRoutingModule -->
<g id="node11" class="node">
<title>ClientsRoutingModule</title>
<polygon fill="#8dd3c7" stroke="#000000" points="1660.3356,-122 1657.3356,-126 1636.3356,-126 1633.3356,-122 1515.6644,-122 1515.6644,-86 1660.3356,-86 1660.3356,-122"/>
<text text-anchor="middle" x="1588" y="-99.8" font-family="Times,serif" font-size="14.00" fill="#000000">ClientsRoutingModule</text>
</g>
<!-- ClientsRoutingModule&#45;&gt;ClientsModule -->
<g id="edge9" class="edge">
<title>ClientsRoutingModule&#45;&gt;ClientsModule</title>
<path fill="none" stroke="#000000" d="M1588,-122.0267C1588,-142.7672 1588,-174 1588,-174 1588,-174 1480.6534,-174 1480.6534,-174"/>
<polygon fill="#000000" stroke="#000000" points="1480.6534,-170.5001 1470.6534,-174 1480.6533,-177.5001 1480.6534,-170.5001"/>
</g>
<!-- SharedModule -->
<g id="node12" class="node">
<title>SharedModule</title>
<polygon fill="#8dd3c7" stroke="#000000" points="1776.4231,-122 1773.4231,-126 1752.4231,-126 1749.4231,-122 1677.5769,-122 1677.5769,-86 1776.4231,-86 1776.4231,-122"/>
<text text-anchor="middle" x="1727" y="-99.8" font-family="Times,serif" font-size="14.00" fill="#000000">SharedModule</text>
</g>
<!-- SharedModule&#45;&gt;ClientsModule -->
<g id="edge10" class="edge">
<title>SharedModule&#45;&gt;ClientsModule</title>
<path fill="none" stroke="#000000" d="M1727,-122.1985C1727,-146.3563 1727,-186 1727,-186 1727,-186 1480.8452,-186 1480.8452,-186"/>
<polygon fill="#000000" stroke="#000000" points="1480.8453,-182.5001 1470.8452,-186 1480.8452,-189.5001 1480.8453,-182.5001"/>
</g>
<!-- PrestationsModule -->
<g id="node24" class="node">
<title>PrestationsModule</title>
<polygon fill="#8dd3c7" stroke="#000000" points="4063.4832,-198 4060.4832,-202 4039.4832,-202 4036.4832,-198 3942.5168,-198 3942.5168,-162 4063.4832,-162 4063.4832,-198"/>
<text text-anchor="middle" x="4003" y="-175.8" font-family="Times,serif" font-size="14.00" fill="#000000">PrestationsModule</text>
</g>
<!-- SharedModule&#45;&gt;PrestationsModule -->
<g id="edge22" class="edge">
<title>SharedModule&#45;&gt;PrestationsModule</title>
<path fill="none" stroke="#000000" d="M1776.5702,-89C2055.1968,-89 3413.8335,-89 3413.8335,-89 3413.8335,-89 3413.8335,-189 3413.8335,-189 3413.8335,-189 3932.443,-189 3932.443,-189"/>
<polygon fill="#000000" stroke="#000000" points="3932.443,-192.5001 3942.443,-189 3932.443,-185.5001 3932.443,-192.5001"/>
</g>
<!-- ActionComponent  -->
<g id="node32" class="node">
<title>ActionComponent </title>
<polygon fill="#fb8072" stroke="#000000" points="2601.4348,-198 2478.5652,-198 2478.5652,-162 2601.4348,-162 2601.4348,-198"/>
<text text-anchor="middle" x="2540" y="-175.8" font-family="Times,serif" font-size="14.00" fill="#000000">ActionComponent </text>
</g>
<!-- SharedModule&#45;&gt;ActionComponent  -->
<g id="edge29" class="edge">
<title>SharedModule&#45;&gt;ActionComponent </title>
<path fill="none" stroke="#000000" stroke-dasharray="5,2" d="M1776.329,-107C1952.4725,-107 2540,-107 2540,-107 2540,-107 2540,-151.9551 2540,-151.9551"/>
<polygon fill="#000000" stroke="#000000" points="2536.5001,-151.955 2540,-161.9551 2543.5001,-151.9551 2536.5001,-151.955"/>
</g>
<!-- ButtonAddComponent  -->
<g id="node33" class="node">
<title>ButtonAddComponent </title>
<polygon fill="#fb8072" stroke="#000000" points="2460.5568,-198 2313.4432,-198 2313.4432,-162 2460.5568,-162 2460.5568,-198"/>
<text text-anchor="middle" x="2387" y="-175.8" font-family="Times,serif" font-size="14.00" fill="#000000">ButtonAddComponent </text>
</g>
<!-- SharedModule&#45;&gt;ButtonAddComponent  -->
<g id="edge30" class="edge">
<title>SharedModule&#45;&gt;ButtonAddComponent </title>
<path fill="none" stroke="#000000" stroke-dasharray="5,2" d="M1776.3374,-110C1929.5614,-110 2387,-110 2387,-110 2387,-110 2387,-151.9733 2387,-151.9733"/>
<polygon fill="#000000" stroke="#000000" points="2383.5001,-151.9732 2387,-161.9733 2390.5001,-151.9733 2383.5001,-151.9732"/>
</g>
<!-- StateDirective  -->
<g id="node34" class="node">
<title>StateDirective </title>
<polygon fill="#fb8072" stroke="#000000" points="2295.5767,-198 2196.4233,-198 2196.4233,-162 2295.5767,-162 2295.5767,-198"/>
<text text-anchor="middle" x="2246" y="-175.8" font-family="Times,serif" font-size="14.00" fill="#000000">StateDirective </text>
</g>
<!-- SharedModule&#45;&gt;StateDirective  -->
<g id="edge31" class="edge">
<title>SharedModule&#45;&gt;StateDirective </title>
<path fill="none" stroke="#000000" stroke-dasharray="5,2" d="M1776.2942,-112C1905.8453,-112 2246,-112 2246,-112 2246,-112 2246,-151.7772 2246,-151.7772"/>
<polygon fill="#000000" stroke="#000000" points="2242.5001,-151.7772 2246,-161.7772 2249.5001,-151.7773 2242.5001,-151.7772"/>
</g>
<!-- TableauComponent  -->
<g id="node35" class="node">
<title>TableauComponent </title>
<polygon fill="#fb8072" stroke="#000000" points="2177.9194,-198 2048.0806,-198 2048.0806,-162 2177.9194,-162 2177.9194,-198"/>
<text text-anchor="middle" x="2113" y="-175.8" font-family="Times,serif" font-size="14.00" fill="#000000">TableauComponent </text>
</g>
<!-- SharedModule&#45;&gt;TableauComponent  -->
<g id="edge32" class="edge">
<title>SharedModule&#45;&gt;TableauComponent </title>
<path fill="none" stroke="#000000" stroke-dasharray="5,2" d="M1776.2792,-115C1880.34,-115 2113,-115 2113,-115 2113,-115 2113,-151.8939 2113,-151.8939"/>
<polygon fill="#000000" stroke="#000000" points="2109.5001,-151.8938 2113,-161.8939 2116.5001,-151.8939 2109.5001,-151.8938"/>
</g>
<!-- TemplatesModule  -->
<g id="node36" class="node">
<title>TemplatesModule </title>
<polygon fill="#fb8072" stroke="#000000" points="2029.8631,-198 1908.1369,-198 1908.1369,-162 2029.8631,-162 2029.8631,-198"/>
<text text-anchor="middle" x="1969" y="-175.8" font-family="Times,serif" font-size="14.00" fill="#000000">TemplatesModule </text>
</g>
<!-- SharedModule&#45;&gt;TemplatesModule  -->
<g id="edge33" class="edge">
<title>SharedModule&#45;&gt;TemplatesModule </title>
<path fill="none" stroke="#000000" stroke-dasharray="5,2" d="M1776.264,-117C1847.0212,-117 1969,-117 1969,-117 1969,-117 1969,-151.7778 1969,-151.7778"/>
<polygon fill="#000000" stroke="#000000" points="1965.5001,-151.7778 1969,-161.7778 1972.5001,-151.7778 1965.5001,-151.7778"/>
</g>
<!-- TotalPipe  -->
<g id="node37" class="node">
<title>TotalPipe </title>
<polygon fill="#fb8072" stroke="#000000" points="1889.9362,-198 1816.0638,-198 1816.0638,-162 1889.9362,-162 1889.9362,-198"/>
<text text-anchor="middle" x="1853" y="-175.8" font-family="Times,serif" font-size="14.00" fill="#000000">TotalPipe </text>
</g>
<!-- SharedModule&#45;&gt;TotalPipe  -->
<g id="edge34" class="edge">
<title>SharedModule&#45;&gt;TotalPipe </title>
<path fill="none" stroke="#000000" stroke-dasharray="5,2" d="M1776.4369,-120C1811.7365,-120 1853,-120 1853,-120 1853,-120 1853,-151.998 1853,-151.998"/>
<polygon fill="#000000" stroke="#000000" points="1849.5001,-151.998 1853,-161.998 1856.5001,-151.9981 1849.5001,-151.998"/>
</g>
<!-- PageLoginComponent -->
<g id="node13" class="node">
<title>PageLoginComponent</title>
<polygon fill="#ffffb3" stroke="#000000" points="983.9874,-122 842.0126,-122 842.0126,-86 983.9874,-86 983.9874,-122"/>
<text text-anchor="middle" x="913" y="-99.8" font-family="Times,serif" font-size="14.00" fill="#000000">PageLoginComponent</text>
</g>
<!-- PageLoginComponent&#45;&gt;LoginModule -->
<g id="edge11" class="edge">
<title>PageLoginComponent&#45;&gt;LoginModule</title>
<path fill="none" stroke="#000000" d="M854.3629,-122.1467C854.3629,-135.7395 854.3629,-152 854.3629,-152 854.3629,-152 573.3873,-152 573.3873,-152 573.3873,-152 573.3873,-152.9793 573.3873,-152.9793"/>
<polygon fill="#000000" stroke="#000000" points="569.8874,-151.793 573.3873,-161.793 576.8874,-151.7931 569.8874,-151.793"/>
</g>
<!-- LoginRoutingModule -->
<g id="node14" class="node">
<title>LoginRoutingModule</title>
<polygon fill="#8dd3c7" stroke="#000000" points="818.1108,-122 815.1108,-126 794.1108,-126 791.1108,-122 679.8892,-122 679.8892,-86 818.1108,-86 818.1108,-122"/>
<text text-anchor="middle" x="749" y="-99.8" font-family="Times,serif" font-size="14.00" fill="#000000">LoginRoutingModule</text>
</g>
<!-- LoginRoutingModule&#45;&gt;LoginModule -->
<g id="edge12" class="edge">
<title>LoginRoutingModule&#45;&gt;LoginModule</title>
<path fill="none" stroke="#000000" d="M708.6659,-122.1097C708.6659,-131.897 708.6659,-142 708.6659,-142 708.6659,-142 556.2781,-142 556.2781,-142 556.2781,-142 556.2781,-151.8903 556.2781,-151.8903"/>
<polygon fill="#000000" stroke="#000000" points="552.7781,-151.8903 556.2781,-161.8903 559.7781,-151.8904 552.7781,-151.8903"/>
</g>
<!-- PageNotFoundComponent -->
<g id="node15" class="node">
<title>PageNotFoundComponent</title>
<polygon fill="#ffffb3" stroke="#000000" points="5147.8243,-122 4982.1757,-122 4982.1757,-86 5147.8243,-86 5147.8243,-122"/>
<text text-anchor="middle" x="5065" y="-99.8" font-family="Times,serif" font-size="14.00" fill="#000000">PageNotFoundComponent</text>
</g>
<!-- PageNotFoundModule -->
<g id="node16" class="node">
<title>PageNotFoundModule</title>
<polygon fill="#8dd3c7" stroke="#000000" points="5035.5421,-198 5032.5421,-202 5011.5421,-202 5008.5421,-198 4892.4579,-198 4892.4579,-162 5035.5421,-162 5035.5421,-198"/>
<text text-anchor="middle" x="4964" y="-175.8" font-family="Times,serif" font-size="14.00" fill="#000000">PageNotFoundModule</text>
</g>
<!-- PageNotFoundComponent&#45;&gt;PageNotFoundModule -->
<g id="edge13" class="edge">
<title>PageNotFoundComponent&#45;&gt;PageNotFoundModule</title>
<path fill="none" stroke="#000000" d="M5009.0544,-122.0109C5009.0544,-122.0109 5009.0544,-151.855 5009.0544,-151.855"/>
<polygon fill="#000000" stroke="#000000" points="5005.5544,-151.8549 5009.0544,-161.855 5012.5544,-151.855 5005.5544,-151.8549"/>
</g>
<!-- PageNotFoundRoutingModule -->
<g id="node17" class="node">
<title>PageNotFoundRoutingModule</title>
<polygon fill="#8dd3c7" stroke="#000000" points="4958.1595,-122 4955.1595,-126 4934.1595,-126 4931.1595,-122 4769.8405,-122 4769.8405,-86 4958.1595,-86 4958.1595,-122"/>
<text text-anchor="middle" x="4864" y="-99.8" font-family="Times,serif" font-size="14.00" fill="#000000">PageNotFoundRoutingModule</text>
</g>
<!-- PageNotFoundRoutingModule&#45;&gt;PageNotFoundModule -->
<g id="edge14" class="edge">
<title>PageNotFoundRoutingModule&#45;&gt;PageNotFoundModule</title>
<path fill="none" stroke="#000000" d="M4925.2795,-122.0109C4925.2795,-122.0109 4925.2795,-151.855 4925.2795,-151.855"/>
<polygon fill="#000000" stroke="#000000" points="4921.7795,-151.8549 4925.2795,-161.855 4928.7795,-151.855 4921.7795,-151.8549"/>
</g>
<!-- AddPrestationComponent -->
<g id="node18" class="node">
<title>AddPrestationComponent</title>
<polygon fill="#ffffb3" stroke="#000000" points="4729.9284,-122 4568.0716,-122 4568.0716,-86 4729.9284,-86 4729.9284,-122"/>
<text text-anchor="middle" x="4649" y="-99.8" font-family="Times,serif" font-size="14.00" fill="#000000">AddPrestationComponent</text>
</g>
<!-- AddPrestationComponent&#45;&gt;PrestationsModule -->
<g id="edge15" class="edge">
<title>AddPrestationComponent&#45;&gt;PrestationsModule</title>
<path fill="none" stroke="#000000" d="M4649,-122.0263C4649,-146.9773 4649,-189 4649,-189 4649,-189 4073.4838,-189 4073.4838,-189"/>
<polygon fill="#000000" stroke="#000000" points="4073.4838,-185.5001 4063.4838,-189 4073.4837,-192.5001 4073.4838,-185.5001"/>
</g>
<!-- FormPrestationComponent -->
<g id="node19" class="node">
<title>FormPrestationComponent</title>
<polygon fill="#ffffb3" stroke="#000000" points="4549.6554,-122 4382.3446,-122 4382.3446,-86 4549.6554,-86 4549.6554,-122"/>
<text text-anchor="middle" x="4466" y="-99.8" font-family="Times,serif" font-size="14.00" fill="#000000">FormPrestationComponent</text>
</g>
<!-- FormPrestationComponent&#45;&gt;PrestationsModule -->
<g id="edge16" class="edge">
<title>FormPrestationComponent&#45;&gt;PrestationsModule</title>
<path fill="none" stroke="#000000" d="M4466,-122.0109C4466,-144.4852 4466,-180 4466,-180 4466,-180 4073.5292,-180 4073.5292,-180"/>
<polygon fill="#000000" stroke="#000000" points="4073.5292,-176.5001 4063.5292,-180 4073.5291,-183.5001 4073.5292,-176.5001"/>
</g>
<!-- ItemPrestationComponent -->
<g id="node20" class="node">
<title>ItemPrestationComponent</title>
<polygon fill="#ffffb3" stroke="#000000" points="4364.4776,-122 4201.5224,-122 4201.5224,-86 4364.4776,-86 4364.4776,-122"/>
<text text-anchor="middle" x="4283" y="-99.8" font-family="Times,serif" font-size="14.00" fill="#000000">ItemPrestationComponent</text>
</g>
<!-- ItemPrestationComponent&#45;&gt;PrestationsModule -->
<g id="edge17" class="edge">
<title>ItemPrestationComponent&#45;&gt;PrestationsModule</title>
<path fill="none" stroke="#000000" d="M4283,-122.308C4283,-142.1455 4283,-171 4283,-171 4283,-171 4073.7558,-171 4073.7558,-171"/>
<polygon fill="#000000" stroke="#000000" points="4073.7559,-167.5001 4063.7558,-171 4073.7558,-174.5001 4073.7559,-167.5001"/>
</g>
<!-- ListPrestationsComponent -->
<g id="node21" class="node">
<title>ListPrestationsComponent</title>
<polygon fill="#ffffb3" stroke="#000000" points="4183.0448,-122 4018.9552,-122 4018.9552,-86 4183.0448,-86 4183.0448,-122"/>
<text text-anchor="middle" x="4101" y="-99.8" font-family="Times,serif" font-size="14.00" fill="#000000">ListPrestationsComponent</text>
</g>
<!-- ListPrestationsComponent&#45;&gt;PrestationsModule -->
<g id="edge18" class="edge">
<title>ListPrestationsComponent&#45;&gt;PrestationsModule</title>
<path fill="none" stroke="#000000" d="M4041.1097,-122.0109C4041.1097,-122.0109 4041.1097,-151.855 4041.1097,-151.855"/>
<polygon fill="#000000" stroke="#000000" points="4037.6098,-151.8549 4041.1097,-161.855 4044.6098,-151.855 4037.6098,-151.8549"/>
</g>
<!-- PageAddPrestationComponent -->
<g id="node22" class="node">
<title>PageAddPrestationComponent</title>
<polygon fill="#ffffb3" stroke="#000000" points="4000.1399,-122 3811.8601,-122 3811.8601,-86 4000.1399,-86 4000.1399,-122"/>
<text text-anchor="middle" x="3906" y="-99.8" font-family="Times,serif" font-size="14.00" fill="#000000">PageAddPrestationComponent</text>
</g>
<!-- PageAddPrestationComponent&#45;&gt;PrestationsModule -->
<g id="edge19" class="edge">
<title>PageAddPrestationComponent&#45;&gt;PrestationsModule</title>
<path fill="none" stroke="#000000" d="M3971.4141,-122.0109C3971.4141,-122.0109 3971.4141,-151.855 3971.4141,-151.855"/>
<polygon fill="#000000" stroke="#000000" points="3967.9142,-151.8549 3971.4141,-161.855 3974.9142,-151.855 3967.9142,-151.8549"/>
</g>
<!-- PagePrestationsComponent -->
<g id="node23" class="node">
<title>PagePrestationsComponent</title>
<polygon fill="#ffffb3" stroke="#000000" points="3793.9776,-122 3624.0224,-122 3624.0224,-86 3793.9776,-86 3793.9776,-122"/>
<text text-anchor="middle" x="3709" y="-99.8" font-family="Times,serif" font-size="14.00" fill="#000000">PagePrestationsComponent</text>
</g>
<!-- PagePrestationsComponent&#45;&gt;PrestationsModule -->
<g id="edge20" class="edge">
<title>PagePrestationsComponent&#45;&gt;PrestationsModule</title>
<path fill="none" stroke="#000000" d="M3709,-122.308C3709,-142.1455 3709,-171 3709,-171 3709,-171 3932.4395,-171 3932.4395,-171"/>
<polygon fill="#000000" stroke="#000000" points="3932.4395,-174.5001 3942.4395,-171 3932.4395,-167.5001 3932.4395,-174.5001"/>
</g>
<!-- PrestationsRoutingModule -->
<g id="node25" class="node">
<title>PrestationsRoutingModule</title>
<polygon fill="#8dd3c7" stroke="#000000" points="3600.101,-122 3597.101,-126 3576.101,-126 3573.101,-122 3433.899,-122 3433.899,-86 3600.101,-86 3600.101,-122"/>
<text text-anchor="middle" x="3517" y="-99.8" font-family="Times,serif" font-size="14.00" fill="#000000">PrestationsRoutingModule</text>
</g>
<!-- PrestationsRoutingModule&#45;&gt;PrestationsModule -->
<g id="edge21" class="edge">
<title>PrestationsRoutingModule&#45;&gt;PrestationsModule</title>
<path fill="none" stroke="#000000" d="M3517,-122.0109C3517,-144.4852 3517,-180 3517,-180 3517,-180 3932.4304,-180 3932.4304,-180"/>
<polygon fill="#000000" stroke="#000000" points="3932.4305,-183.5001 3942.4304,-180 3932.4304,-176.5001 3932.4305,-183.5001"/>
</g>
<!-- ActionComponent -->
<g id="node26" class="node">
<title>ActionComponent</title>
<polygon fill="#ffffb3" stroke="#000000" points="3393.9356,-198 3274.0644,-198 3274.0644,-162 3393.9356,-162 3393.9356,-198"/>
<text text-anchor="middle" x="3334" y="-175.8" font-family="Times,serif" font-size="14.00" fill="#000000">ActionComponent</text>
</g>
<!-- ActionComponent&#45;&gt;SharedModule -->
<g id="edge23" class="edge">
<title>ActionComponent&#45;&gt;SharedModule</title>
<path fill="none" stroke="#000000" d="M3334,-161.7663C3334,-135.9906 3334,-92 3334,-92 3334,-92 1786.4132,-92 1786.4132,-92"/>
<polygon fill="#000000" stroke="#000000" points="1786.4133,-88.5001 1776.4132,-92 1786.4132,-95.5001 1786.4133,-88.5001"/>
</g>
<!-- ButtonAddComponent -->
<g id="node27" class="node">
<title>ButtonAddComponent</title>
<polygon fill="#ffffb3" stroke="#000000" points="3256.5575,-198 3113.4425,-198 3113.4425,-162 3256.5575,-162 3256.5575,-198"/>
<text text-anchor="middle" x="3185" y="-175.8" font-family="Times,serif" font-size="14.00" fill="#000000">ButtonAddComponent</text>
</g>
<!-- ButtonAddComponent&#45;&gt;SharedModule -->
<g id="edge24" class="edge">
<title>ButtonAddComponent&#45;&gt;SharedModule</title>
<path fill="none" stroke="#000000" d="M3185,-161.7616C3185,-136.5171 3185,-94 3185,-94 3185,-94 1786.3457,-94 1786.3457,-94"/>
<polygon fill="#000000" stroke="#000000" points="1786.3457,-90.5001 1776.3457,-94 1786.3457,-97.5001 1786.3457,-90.5001"/>
</g>
<!-- StateDirective -->
<g id="node28" class="node">
<title>StateDirective</title>
<polygon fill="#ffffb3" stroke="#000000" points="3095.0758,-198 2998.9242,-198 2998.9242,-162 3095.0758,-162 3095.0758,-198"/>
<text text-anchor="middle" x="3047" y="-175.8" font-family="Times,serif" font-size="14.00" fill="#000000">StateDirective</text>
</g>
<!-- StateDirective&#45;&gt;SharedModule -->
<g id="edge25" class="edge">
<title>StateDirective&#45;&gt;SharedModule</title>
<path fill="none" stroke="#000000" d="M3047,-161.9902C3047,-137.5793 3047,-97 3047,-97 3047,-97 1786.3364,-97 1786.3364,-97"/>
<polygon fill="#000000" stroke="#000000" points="1786.3365,-93.5001 1776.3364,-97 1786.3364,-100.5001 1786.3365,-93.5001"/>
</g>
<!-- TableauComponent -->
<g id="node29" class="node">
<title>TableauComponent</title>
<polygon fill="#ffffb3" stroke="#000000" points="2981.4201,-198 2854.5799,-198 2854.5799,-162 2981.4201,-162 2981.4201,-198"/>
<text text-anchor="middle" x="2918" y="-175.8" font-family="Times,serif" font-size="14.00" fill="#000000">TableauComponent</text>
</g>
<!-- TableauComponent&#45;&gt;SharedModule -->
<g id="edge26" class="edge">
<title>TableauComponent&#45;&gt;SharedModule</title>
<path fill="none" stroke="#000000" d="M2918,-161.6198C2918,-137.7215 2918,-99 2918,-99 2918,-99 1786.2836,-99 1786.2836,-99"/>
<polygon fill="#000000" stroke="#000000" points="1786.2836,-95.5001 1776.2836,-99 1786.2836,-102.5001 1786.2836,-95.5001"/>
</g>
<!-- TotalPipe -->
<g id="node30" class="node">
<title>TotalPipe</title>
<polygon fill="#ffffb3" stroke="#000000" points="2837.4376,-198 2766.5624,-198 2766.5624,-162 2837.4376,-162 2837.4376,-198"/>
<text text-anchor="middle" x="2802" y="-175.8" font-family="Times,serif" font-size="14.00" fill="#000000">TotalPipe</text>
</g>
<!-- TotalPipe&#45;&gt;SharedModule -->
<g id="edge27" class="edge">
<title>TotalPipe&#45;&gt;SharedModule</title>
<path fill="none" stroke="#000000" d="M2802,-161.9092C2802,-138.8672 2802,-102 2802,-102 2802,-102 1786.3381,-102 1786.3381,-102"/>
<polygon fill="#000000" stroke="#000000" points="1786.3382,-98.5001 1776.3381,-102 1786.3381,-105.5001 1786.3382,-98.5001"/>
</g>
<!-- TemplatesModule -->
<g id="node31" class="node">
<title>TemplatesModule</title>
<polygon fill="#8dd3c7" stroke="#000000" points="2742.8627,-198 2739.8627,-202 2718.8627,-202 2715.8627,-198 2625.1373,-198 2625.1373,-162 2742.8627,-162 2742.8627,-198"/>
<text text-anchor="middle" x="2684" y="-175.8" font-family="Times,serif" font-size="14.00" fill="#000000">TemplatesModule</text>
</g>
<!-- TemplatesModule&#45;&gt;SharedModule -->
<g id="edge28" class="edge">
<title>TemplatesModule&#45;&gt;SharedModule</title>
<path fill="none" stroke="#000000" d="M2684,-161.9891C2684,-139.5148 2684,-104 2684,-104 2684,-104 1786.4373,-104 1786.4373,-104"/>
<polygon fill="#000000" stroke="#000000" points="1786.4373,-100.5001 1776.4373,-104 1786.4372,-107.5001 1786.4373,-100.5001"/>
</g>
<!-- TemplateAComponent  -->
<g id="node40" class="node">
<title>TemplateAComponent </title>
<polygon fill="#fb8072" stroke="#000000" points="2672.8073,-274 2525.1927,-274 2525.1927,-238 2672.8073,-238 2672.8073,-274"/>
<text text-anchor="middle" x="2599" y="-251.8" font-family="Times,serif" font-size="14.00" fill="#000000">TemplateAComponent </text>
</g>
<!-- TemplatesModule&#45;&gt;TemplateAComponent  -->
<g id="edge37" class="edge">
<title>TemplatesModule&#45;&gt;TemplateAComponent </title>
<path fill="none" stroke="#000000" stroke-dasharray="5,2" d="M2656.9586,-198.0109C2656.9586,-198.0109 2656.9586,-227.855 2656.9586,-227.855"/>
<polygon fill="#000000" stroke="#000000" points="2653.4587,-227.8549 2656.9586,-237.855 2660.4587,-227.855 2653.4587,-227.8549"/>
</g>
<!-- TemplateBComponent  -->
<g id="node41" class="node">
<title>TemplateBComponent </title>
<polygon fill="#fb8072" stroke="#000000" points="2507.5372,-274 2360.4628,-274 2360.4628,-238 2507.5372,-238 2507.5372,-274"/>
<text text-anchor="middle" x="2434" y="-251.8" font-family="Times,serif" font-size="14.00" fill="#000000">TemplateBComponent </text>
</g>
<!-- TemplatesModule&#45;&gt;TemplateBComponent  -->
<g id="edge38" class="edge">
<title>TemplatesModule&#45;&gt;TemplateBComponent </title>
<path fill="none" stroke="#000000" stroke-dasharray="5,2" d="M2641.0137,-198.2434C2641.0137,-205.4297 2641.0137,-212 2641.0137,-212 2641.0137,-212 2493.0256,-212 2493.0256,-212 2493.0256,-212 2493.0256,-227.8495 2493.0256,-227.8495"/>
<polygon fill="#000000" stroke="#000000" points="2489.5257,-227.8494 2493.0256,-237.8495 2496.5257,-227.8495 2489.5257,-227.8494"/>
</g>
<!-- TemplateAComponent -->
<g id="node38" class="node">
<title>TemplateAComponent</title>
<polygon fill="#ffffb3" stroke="#000000" points="3003.3075,-274 2858.6925,-274 2858.6925,-238 3003.3075,-238 3003.3075,-274"/>
<text text-anchor="middle" x="2931" y="-251.8" font-family="Times,serif" font-size="14.00" fill="#000000">TemplateAComponent</text>
</g>
<!-- TemplateAComponent&#45;&gt;TemplatesModule -->
<g id="edge35" class="edge">
<title>TemplateAComponent&#45;&gt;TemplatesModule</title>
<path fill="none" stroke="#000000" d="M2920.0281,-237.9672C2920.0281,-231.1474 2920.0281,-225 2920.0281,-225 2920.0281,-225 2727.698,-225 2727.698,-225 2727.698,-225 2727.698,-208.0439 2727.698,-208.0439"/>
<polygon fill="#000000" stroke="#000000" points="2731.1981,-208.0439 2727.698,-198.0439 2724.1981,-208.044 2731.1981,-208.0439"/>
</g>
<!-- TemplateBComponent -->
<g id="node39" class="node">
<title>TemplateBComponent</title>
<polygon fill="#ffffb3" stroke="#000000" points="2840.5379,-274 2697.4621,-274 2697.4621,-238 2840.5379,-238 2840.5379,-274"/>
<text text-anchor="middle" x="2769" y="-251.8" font-family="Times,serif" font-size="14.00" fill="#000000">TemplateBComponent</text>
</g>
<!-- TemplateBComponent&#45;&gt;TemplatesModule -->
<g id="edge36" class="edge">
<title>TemplateBComponent&#45;&gt;TemplatesModule</title>
<path fill="none" stroke="#000000" d="M2712.4647,-237.9891C2712.4647,-237.9891 2712.4647,-208.145 2712.4647,-208.145"/>
<polygon fill="#000000" stroke="#000000" points="2715.9648,-208.145 2712.4647,-198.145 2708.9648,-208.1451 2715.9648,-208.145"/>
</g>
<!-- FooterComponent -->
<g id="node42" class="node">
<title>FooterComponent</title>
<polygon fill="#ffffb3" stroke="#000000" points="639.8809,-122 522.1191,-122 522.1191,-86 639.8809,-86 639.8809,-122"/>
<text text-anchor="middle" x="581" y="-99.8" font-family="Times,serif" font-size="14.00" fill="#000000">FooterComponent</text>
</g>
<!-- FooterComponent&#45;&gt;UiModule -->
<g id="edge39" class="edge">
<title>FooterComponent&#45;&gt;UiModule</title>
<path fill="none" stroke="#000000" d="M539.1688,-122.207C539.1688,-127.5549 539.1688,-132 539.1688,-132 539.1688,-132 455.2578,-132 455.2578,-132 455.2578,-132 455.2578,-151.8533 455.2578,-151.8533"/>
<polygon fill="#000000" stroke="#000000" points="451.7579,-151.8532 455.2578,-161.8533 458.7579,-151.8533 451.7579,-151.8532"/>
</g>
<!-- HeaderComponent -->
<g id="node43" class="node">
<title>HeaderComponent</title>
<polygon fill="#ffffb3" stroke="#000000" points="503.7437,-122 382.2563,-122 382.2563,-86 503.7437,-86 503.7437,-122"/>
<text text-anchor="middle" x="443" y="-99.8" font-family="Times,serif" font-size="14.00" fill="#000000">HeaderComponent</text>
</g>
<!-- HeaderComponent&#45;&gt;UiModule -->
<g id="edge40" class="edge">
<title>HeaderComponent&#45;&gt;UiModule</title>
<path fill="none" stroke="#000000" d="M430.7422,-122.0109C430.7422,-122.0109 430.7422,-151.855 430.7422,-151.855"/>
<polygon fill="#000000" stroke="#000000" points="427.2423,-151.8549 430.7422,-161.855 434.2423,-151.855 427.2423,-151.8549"/>
</g>
<!-- NavComponent -->
<g id="node44" class="node">
<title>NavComponent</title>
<polygon fill="#ffffb3" stroke="#000000" points="364.1542,-122 259.8458,-122 259.8458,-86 364.1542,-86 364.1542,-122"/>
<text text-anchor="middle" x="312" y="-99.8" font-family="Times,serif" font-size="14.00" fill="#000000">NavComponent</text>
</g>
<!-- NavComponent&#45;&gt;UiModule -->
<g id="edge41" class="edge">
<title>NavComponent&#45;&gt;UiModule</title>
<path fill="none" stroke="#000000" d="M312,-122.308C312,-142.1455 312,-171 312,-171 312,-171 396.1606,-171 396.1606,-171"/>
<polygon fill="#000000" stroke="#000000" points="396.1606,-174.5001 406.1606,-171 396.1605,-167.5001 396.1606,-174.5001"/>
</g>
<!-- UiComponent -->
<g id="node45" class="node">
<title>UiComponent</title>
<polygon fill="#ffffb3" stroke="#000000" points="241.8302,-122 146.1698,-122 146.1698,-86 241.8302,-86 241.8302,-122"/>
<text text-anchor="middle" x="194" y="-99.8" font-family="Times,serif" font-size="14.00" fill="#000000">UiComponent</text>
</g>
<!-- UiComponent&#45;&gt;UiModule -->
<g id="edge42" class="edge">
<title>UiComponent&#45;&gt;UiModule</title>
<path fill="none" stroke="#000000" d="M194,-122.0109C194,-144.4852 194,-180 194,-180 194,-180 396.2592,-180 396.2592,-180"/>
<polygon fill="#000000" stroke="#000000" points="396.2592,-183.5001 406.2592,-180 396.2592,-176.5001 396.2592,-183.5001"/>
</g>
</g>
</svg>
